<svg xmlns="http://www.w3.org/2000/svg" width="20" height="12" viewBox="0 0 20 12">
  <g id="eye" transform="translate(-1068 -1046.025)">
    <g id="Path_6669" data-name="Path 6669" transform="translate(1068 1046.025)" fill="none">
      <path d="M10,0c5.523,0,10,6,10,6s-4.477,6-10,6S0,6,0,6,4.477,0,10,0Z" stroke="none"/>
      <path d="M 10 2 C 7.76941967010498 2 5.653639793395996 3.351449966430664 4.271499633789062 4.485179901123047 C 3.627727508544922 5.013247489929199 3.076074600219727 5.547215461730957 2.644296646118164 5.99993896484375 C 3.061424255371094 6.437332630157471 3.590246200561523 6.950422763824463 4.205260276794434 7.46019983291626 C 5.603079795837402 8.618840217590332 7.74308967590332 10 10 10 C 12.2305793762207 10 14.346360206604 8.648550033569336 15.72850036621094 7.514820098876953 C 16.37227249145508 6.986752510070801 16.92392539978027 6.452784538269043 17.35570335388184 6.00006103515625 C 16.93857574462891 5.562667369842529 16.40975379943848 5.049577236175537 15.79474067687988 4.53980016708374 C 14.3969202041626 3.381159782409668 12.25691032409668 2 10 2 M 10 0 C 15.52285003662109 0 20 6 20 6 C 20 6 15.52285003662109 12 10 12 C 4.477149963378906 12 0 6 0 6 C 0 6 4.477149963378906 0 10 0 Z" stroke="none" fill="#ee2a7b"/>
    </g>
    <g id="Ellipse_199" data-name="Ellipse 199" transform="translate(1075 1049.025)" fill="none" stroke="#ee2a7b" stroke-width="2">
      <circle cx="3" cy="3" r="3" stroke="none"/>
      <circle cx="3" cy="3" r="2" fill="none"/>
    </g>
  </g>
</svg>
